<svg data-v-0dd9719b="" version="1.0" xmlns="http://www.w3.org/2000/svg" xmlns:xlink="http://www.w3.org/1999/xlink" width="100%" height="100%" viewBox="0 0 340.000000 250.000000" preserveAspectRatio="xMidYMid meet" color-interpolation-filters="sRGB" style="margin: auto;"> <rect data-v-0dd9719b="" x="0" y="0" width="100%" height="100%" fill="#ffffff" fill-opacity="1" class="background"></rect> <rect data-v-0dd9719b="" x="0" y="0" width="100%" height="100%" fill="url(#watermark)" fill-opacity="1" class="watermarklayer"></rect> <g data-v-0dd9719b="" fill="#fbbd53" class="icon-text-wrapper icon-svg-group iconsvg" transform="translate(49.052001953125,95.06645202636719)"><g class="iconsvg-imagesvg" transform="translate(0,0)"><g><rect fill="#fbbd53" fill-opacity="0" stroke-width="2" x="0" y="0" width="60" height="59.86709504899123" class="image-rect"></rect> <svg filter="url(#colors2581186847)" x="0" y="0" width="60" height="59.86709504899123" filtersec="colorsf9196230041" class="image-svg-svg primary" style="overflow: visible;"><svg xmlns="http://www.w3.org/2000/svg" viewBox="0.2999999999999998 0.6000000000000001 94.39999 94.2"><path d="M47.5 47.7L40 27.1l-3.7-10.2c-2.1-5.8.9-12.1 6.6-14.2l.2-.1 4.4 12m-11.3 2L28 6.8l-.2.1c-4.7 3.9-5.3 10.9-1.4 15.6l7 8.3 14.1 16.8M26.2 22.3l-11.1-6.4-.1.2c-3.1 5.3-1.2 12.1 4.1 15.2l9.4 5.4 19 11M18.8 31.1L6.3 28.9v.2c-1.1 6 3 11.8 9 12.9L26 43.9l21.6 3.8m-32.7-5.8L2.3 44.2v.2c1.1 6 6.8 10.1 12.9 9l10.7-1.9 21.6-3.8m-32.6 5.7L3.8 59.8l.1.2c3.1 5.3 9.9 7.1 15.2 4.1l9.4-5.4 19-11M18.8 64.2L10.6 74l.2.1c4.7 3.9 11.7 3.3 15.6-1.4l7-8.3 14.1-16.8M26.2 73.1l-4.4 12 .2.1c5.8 2.1 12.1-.9 14.2-6.6L40 68.3l7.5-20.6M36.2 78.8v12.8h.2c6.1 0 11.1-5 11.1-11.1V47.7m0 33.1l4.4 12 .2-.1c5.8-2.1 8.7-8.5 6.6-14.2L55 68.3l-7.5-20.6m11.3 31.1l8.2 9.8.2-.1c4.7-3.9 5.3-10.9 1.4-15.6l-7-8.3-14.1-16.9m21.3 25.4l11.1 6.4.1-.2c3.1-5.3 1.2-12.1-4.1-15.2l-9.4-5.4-19-11m28.7 16.5l12.6 2.2v-.2c1.1-6-3-11.8-9-12.9l-10.7-1.9-21.6-3.8m32.6 5.8l12.6-2.2V51c-1.1-6-6.8-10.1-12.9-9l-10.7 1.9-21.6 3.8m32.6-5.8l11.1-6.4-.1-.2c-3.1-5.3-9.9-7.1-15.2-4.1l-9.4 5.4-19 11m28.7-16.5l8.2-9.8-.2-.1c-4.7-3.9-11.7-3.3-15.6 1.4l-7 8.3-14.1 16.8m21.3-25.4l4.4-12-.2-.1c-5.8-2.1-12.1.9-14.2 6.6L55 27.1l-7.5 20.6m11.3-31.1V3.8h-.2c-6.1 0-11.1 5-11.1 11.1v32.7" fill="none" stroke="#333" stroke-width="4" stroke-miterlimit="10"></path></svg></svg> <defs><filter id="colors2581186847"><feColorMatrix type="matrix" values="0 0 0 0 0.8515625  0 0 0 0 0.39453125  0 0 0 0 0.26953125  0 0 0 1 0" class="icon-fecolormatrix"></feColorMatrix></filter> <filter id="colorsf9196230041"><feColorMatrix type="matrix" values="0 0 0 0 0.99609375  0 0 0 0 0.99609375  0 0 0 0 0.99609375  0 0 0 1 0" class="icon-fecolormatrix"></feColorMatrix></filter> <filter id="colorsb9668162311"><feColorMatrix type="matrix" values="0 0 0 0 0  0 0 0 0 0  0 0 0 0 0  0 0 0 1 0" class="icon-fecolormatrix"></feColorMatrix></filter></defs></g></g> <g transform="translate(67,1.493417739868164)"><g data-gra="path-name" fill-rule="" class="tp-name iconsvg-namesvg" transform="translate(0,0)"><g transform="scale(1)"><g><path d="M37.88 3.34L37.88 3.34Q38.32 3.6 38.54 3.67 38.76 3.74 38.87 3.65 38.98 3.56 39.02 3.3L39.02 3.3Q39.2 2.29 40.03 1.41 40.87 0.53 41.92 0.22L41.92 0.22Q43.29-0.18 41.92-0.66L41.92-0.66Q35.77-2.99 31.49-6.72 27.2-10.46 25.27-15.12L25.27-15.12Q24.3-17.45 24.3-17.8L24.3-17.8Q24.35-18.54 26.1-18.72L26.1-18.72Q26.94-18.76 32.56-18.81L32.56-18.81Q40.08-18.85 40.47-19.03L40.47-19.03Q40.65-19.12 40.69-19.47L40.69-19.47Q40.74-19.78 39.55-20.87 38.36-21.97 37-22.94L37-22.94Q36.25-23.47 35.97-23.36 35.68-23.25 34.76-22.06L34.76-22.06Q33.71-20.65 33.4-20.43L33.4-20.43Q32.78-20.08 29.93-20.08L29.93-20.08Q28.7-20.08 28.48-20.08L28.48-20.08Q28.04-20.08 27.2-20.08L27.2-20.08Q24.21-20.08 23.82-20.39L23.82-20.39Q23.47-20.65 23.6-22.1L23.6-22.1Q23.64-22.5 23.64-22.72L23.64-22.72Q23.77-24.04 23.86-27.6L23.86-27.6Q23.86-27.91 23.86-29.09L23.86-29.09Q23.86-31.25 24.61-31.6 25.36-31.95 29.88-31.95L29.88-31.95Q31.86-31.95 33.09-31.95L33.09-31.95Q39.73-31.99 40.74-32.04 41.75-32.08 41.92-32.43 42.1-32.78 40.83-34.04 39.55-35.29 38.01-36.25L38.01-36.25Q37.4-36.69 37.11-36.54 36.83-36.39 35.86-35.02L35.86-35.02Q34.76-33.4 34.1-33.27L34.1-33.27Q33.66-33.18 19.29-33.24 4.92-33.31 4.09-33.4L4.09-33.4Q3.08-33.49 2.99-33.35 2.9-33.22 3.38-32.34L3.38-32.34Q3.82-31.51 4-31.42 4.17-31.33 5.01-31.46L5.01-31.46Q7.69-31.86 13.4-31.9L13.4-31.9Q13.97-31.9 14.99-31.9L14.99-31.9Q18.41-31.95 18.94-31.64L18.94-31.64Q19.38-31.33 19.34-29.93L19.34-29.93Q19.34-29.88 19.34-29.79L19.34-29.79Q19.34-29.36 19.34-29.14L19.34-29.14Q19.34-20.74 18.5-20.26L18.5-20.26Q18.11-20.04 12.94-20.06 7.78-20.08 5.19-20.3L5.19-20.3Q4.57-20.39 4.55-20.26 4.53-20.13 4.92-19.25 5.32-18.37 5.49-18.28 5.67-18.19 6.77-18.37L6.77-18.37Q9.27-18.72 13.84-18.76L13.84-18.76Q17.71-18.81 18.28-18.54L18.28-18.54Q18.81-18.24 18.54-16.74L18.54-16.74Q18.5-16.66 18.37-15.91L18.37-15.91Q17.09-9.76 13.56-5.34 10.02-0.92 3.74 2.37L3.74 2.37Q3.25 2.59 2.99 2.75 2.72 2.9 2.61 3.03 2.5 3.16 2.53 3.25 2.55 3.34 2.64 3.43L2.64 3.43Q2.86 3.6 3.05 3.56 3.25 3.52 4.35 3.12L4.35 3.12Q12.26 0.09 16.46-4.09 20.65-8.26 22.5-14.99L22.5-14.99Q23.03-16.96 23.36-17.01 23.69-17.05 24.17-15.16L24.17-15.16Q27.29-2.29 37.88 3.34ZM51.59 3.6L51.59 3.6Q53.7 4.66 54.67 2.46L54.67 2.46Q55.77-0.09 54.54-4.44L54.54-4.44Q53.66-7.6 54.05-9.98L54.05-9.98Q54.27-11.38 55.88-17.49 57.48-23.6 57.74-24.13L57.74-24.13Q57.92-24.52 58.27-24.54 58.62-24.57 58.8-24.21L58.8-24.21Q59.02-23.86 59.68-23.95L59.68-23.95Q61.74-24.3 64.69-24.43 67.63-24.57 68.03-24.35L68.03-24.35Q68.69-23.99 68.71-21.95 68.73-19.91 68.07-19.56L68.07-19.56Q67.81-19.42 64.95-19.45 62.09-19.47 60.47-19.6L60.47-19.6Q59.41-19.69 59.33-19.6 59.24-19.51 59.68-18.68L59.68-18.68Q60.12-17.8 60.29-17.67 60.47-17.53 61.08-17.67L61.08-17.67Q62.8-17.97 65.21-18.13 67.63-18.28 68.03-18.06L68.03-18.06Q68.51-17.8 68.71-16.02 68.91-14.24 68.51-13.49L68.51-13.49Q68.25-12.96 65.57-12.88 62.89-12.79 59.02-13.14L59.02-13.14Q58.23-13.18 58.18-13.05 58.14-12.92 58.62-12.04L58.62-12.04Q59.02-11.21 59.3-11.14 59.59-11.07 61.3-11.34L61.3-11.34Q62.89-11.56 65.3-11.6 67.72-11.65 68.07-11.47L68.07-11.47Q68.73-11.12 68.71-8.81 68.69-6.5 68.03-6.15L68.03-6.15Q67.72-5.98 63.13-6.04 58.54-6.11 57-6.33L57-6.33Q56.6-6.42 56.65-6.15L56.65-6.15Q56.65-5.93 57-5.27L57-5.27Q57.44-4.39 57.66-4.31 57.88-4.22 59.19-4.39L59.19-4.39Q61.66-4.7 64.69-4.77 67.72-4.83 68.12-4.61L68.12-4.61Q69.04-4.04 68.51 2.07L68.51 2.07Q68.42 3.08 68.64 3.41 68.86 3.74 69.57 3.74L69.57 3.74Q70.88 3.69 71.92 3.01 72.95 2.33 72.86 1.54L72.86 1.54Q72.77 0.4 72.75-1.71 72.73-3.82 72.86-4.13L72.86-4.13Q73.04-4.53 73.3-4.61L73.3-4.61Q73.87-4.75 80.24-4.79L80.24-4.79Q85.65-4.83 86.53-4.88 87.41-4.92 87.63-5.27L87.63-5.27Q88.02-5.89 85.12-8.22L85.12-8.22Q83.85-9.27 83.52-9.16 83.19-9.05 81.83-7.21L81.83-7.21Q81.17-6.33 80.66-6.2 80.16-6.06 77.12-6.02L77.12-6.02Q76.86-6.02 76.42-6.02L76.42-6.02Q73.65-6.02 73.19-6.31 72.73-6.59 72.73-8.39L72.73-8.39Q72.73-8.7 72.73-8.88L72.73-8.88Q72.73-9.18 72.73-9.67L72.73-9.67Q72.69-10.99 73.08-11.25L73.08-11.25Q73.56-11.6 77.08-11.6L77.08-11.6Q78.31-11.6 79.06-11.6L79.06-11.6Q83.54-11.65 84.29-11.69 85.03-11.73 85.25-12.08L85.25-12.08Q85.65-12.7 82.92-14.9L82.92-14.9Q81.52-15.91 81.52-16.13L81.52-16.13Q81.52-16.44 82.62-17.09L82.62-17.09Q82.97-17.31 82.99-17.51 83.01-17.71 82.97-18.94L82.97-18.94Q82.75-23.07 83.08-23.75 83.41-24.43 85.69-24.48L85.69-24.48Q88.24-24.48 88.48-24.96 88.73-25.44 87.01-27.16L87.01-27.16Q85.87-28.26 85.52-28.32 85.17-28.39 84.59-27.51L84.59-27.51Q82.92-25.05 82.88-27.99L82.88-27.99Q82.88-29.18 83.06-29.58 83.23-29.97 83.89-30.32L83.89-30.32Q84.33-30.54 84.46-30.76 84.59-30.98 84.38-31.33 84.16-31.68 83.65-32.1 83.14-32.52 82.13-33.27L82.13-33.27Q80.99-34.06 80.66-34.08 80.33-34.1 79.76-33.35L79.76-33.35Q78.93-32.34 78.38-32.15 77.83-31.95 75.76-31.95L75.76-31.95Q73.56-31.95 73.13-32.21 72.69-32.48 72.77-33.75L72.77-33.75Q72.77-35.02 73.34-35.42L73.34-35.42Q74.4-35.99 72.33-36.78L72.33-36.78Q71.37-37.13 69.61-37.62L69.61-37.62Q68.64-37.84 68.53-37.77 68.42-37.71 68.51-36.87L68.51-36.87Q68.95-32.56 68.03-32.12L68.03-32.12Q67.59-31.95 65-31.97 62.4-31.99 60.42-32.21L60.42-32.21Q59.63-32.3 59.63-32.12L59.63-32.12Q59.63-31.99 60.03-31.16L60.03-31.16Q60.47-30.32 60.69-30.26 60.91-30.19 62.4-30.41L62.4-30.41Q66.27-31.03 67.48-30.61 68.69-30.19 68.69-28.21L68.69-28.21Q68.69-28.04 68.69-27.77L68.69-27.77Q68.69-26.24 68.25-25.99 67.81-25.75 64.91-25.8L64.91-25.8Q64.34-25.8 64.03-25.8L64.03-25.8Q59.59-25.84 58.93-26.1 58.27-26.37 58.71-27.99L58.71-27.99Q58.84-28.48 58.91-28.76 58.97-29.05 58.95-29.2 58.93-29.36 58.86-29.4 58.8-29.44 58.62-29.44L58.62-29.44Q58.4-29.44 58.23-29.07 58.05-28.7 57-26.02L57-26.02Q56.38-24.3 55.79-22.83 55.2-21.36 54.89-20.57L54.89-20.57Q54.27-18.59 51.77-12.39L51.77-12.39Q50.89-10.42 50.43-9.91 49.97-9.4 48.82-9.36L48.82-9.36Q48.08-9.32 47.92-9.23 47.77-9.14 47.86-8.79L47.86-8.79Q47.99-8.48 48.52-8.39L48.52-8.39Q50.05-8.09 50.54-6.17 51.02-4.26 50.63-0.04L50.63-0.04Q50.45 1.67 50.67 2.46 50.89 3.25 51.59 3.6ZM78.79-13.14L78.79-13.14Q78.44-12.92 76.07-12.88L76.07-12.88Q73.48-12.88 73.1-13.18 72.73-13.49 72.73-15.51 72.73-17.53 73.1-17.86 73.48-18.19 75.81-18.19L75.81-18.19Q78.05-18.19 78.55-17.97 79.06-17.75 79.1-16.79L79.1-16.79Q79.15-16.39 79.23-16.33 79.32-16.26 79.72-16.22L79.72-16.22Q80.64-16.17 80.64-15.73L80.64-15.73Q80.64-15.47 79.91-14.44 79.19-13.4 78.79-13.14ZM78.57-19.64L78.57-19.64Q78.27-19.42 75.92-19.4 73.56-19.38 73.26-19.6L73.26-19.6Q72.64-19.95 72.69-21.97 72.73-23.99 73.34-24.3L73.34-24.3Q73.65-24.52 75.85-24.52 78.05-24.52 78.4-24.3L78.4-24.3Q79.1-23.99 79.17-22.04 79.23-20.08 78.57-19.64ZM78.57-25.97L78.57-25.97Q78.27-25.75 75.92-25.73 73.56-25.71 73.26-25.93L73.26-25.93Q72.69-26.28 72.69-28.23 72.69-30.19 73.26-30.54L73.26-30.54Q73.56-30.76 75.92-30.72 78.27-30.67 78.57-30.45L78.57-30.45Q79.15-30.1 79.15-28.21 79.15-26.32 78.57-25.97ZM51.72-20.65L51.72-20.65Q53-20.17 53.75-20.87 54.49-21.58 54.34-22.83 54.18-24.08 53.09-25.09L53.09-25.09Q51.68-26.41 48.96-27.07L48.96-27.07Q47.24-27.47 47.33-26.94L47.33-26.94Q47.37-26.76 47.64-26.5L47.64-26.5Q48.69-25.49 49.68-23.93 50.67-22.37 50.89-21.45L50.89-21.45Q51.02-20.92 51.72-20.65ZM55.55-30.32L55.55-30.32Q56.56-29.97 57.37-30.65 58.18-31.33 58.14-32.43L58.14-32.43Q58.14-34.06 56.51-35.35 54.89-36.65 52.16-37.18L52.16-37.18Q51.42-37.31 51.06-37.35 50.71-37.4 50.6-37.29 50.49-37.18 50.63-36.96 50.76-36.74 51.15-36.3L51.15-36.3Q53.96-33.18 54.62-31.03L54.62-31.03Q54.76-30.59 55.55-30.32ZM103.58 3.12L103.58 3.12Q103.75 3.16 104.9 2.99L104.9 2.99Q106.83 2.68 108.92 2.61 111.01 2.55 120.1 2.5L120.1 2.5Q131.92 2.46 132.5 2.29L132.5 2.29Q132.67 2.2 132.67 1.85L132.67 1.85Q132.67 1.45 131.22-0.04 129.77-1.54 128.98-1.93L128.98-1.93Q128.67-2.11 128.41-1.87 128.14-1.63 127.35-0.48L127.35-0.48Q126.43 0.88 126.06 1.05 125.68 1.23 123.66 1.27L123.66 1.27Q121.38 1.27 120.98 1.03 120.59 0.79 120.59-0.75L120.59-0.75Q120.59-2.37 121.07-2.64 121.55-2.9 124.45-2.9L124.45-2.9Q127-2.9 128.06-2.77L128.06-2.77Q128.98-2.64 129.84-2.9 130.69-3.16 130.69-3.56L130.69-3.56Q130.69-3.91 129.11-5.47 127.53-7.03 127.18-7.03L127.18-7.03Q126.87-7.03 125.99-5.71L125.99-5.71Q125.16-4.48 124.74-4.26 124.32-4.04 122.87-4.04L122.87-4.04Q121.33-4.04 120.96-4.37 120.59-4.7 120.59-6.11 120.59-7.51 120.85-7.78L120.85-7.78Q121.29-8.17 124.5-8.17L124.5-8.17Q125.11-8.17 125.77-8.17L125.77-8.17Q130.21-8.17 130.52-8.48L130.52-8.48Q130.83-8.7 129.64-9.89L129.64-9.89Q129.55-9.93 129.2-10.28L129.2-10.28Q128.28-11.21 127.99-11.62 127.71-12.04 127.86-12.3 128.01-12.57 128.72-12.88L128.72-12.88Q129.11-13.05 129.18-13.47 129.24-13.89 129.24-16.35L129.24-16.35Q129.24-19.07 129.38-19.51L129.38-19.51Q129.73-20.26 129.99-20.26L129.99-20.26Q130.08-20.26 130.43-20.54 130.78-20.83 130.78-20.92L130.78-20.92Q130.78-21.18 129.55-22.24 128.32-23.29 127.4-23.77L127.4-23.77Q126.91-24.08 126.63-23.97 126.34-23.86 125.77-23.12L125.77-23.12Q124.94-22.19 123.57-21.86 122.21-21.53 121.25-22.06L121.25-22.06Q120.45-22.41 120.56-23.95 120.67-25.49 121.46-25.49L121.46-25.49Q121.73-25.49 121.99-25.25 122.26-25 122.3-24.79L122.3-24.79Q122.34-24.3 123.31-24.3 124.28-24.3 125.38-24.79L125.38-24.79Q126.12-25.09 126.19-25.4 126.25-25.71 126.21-27.86L126.21-27.86Q126.12-30.63 126.47-30.96 126.83-31.29 129.68-31.33L129.68-31.33Q132.76-31.38 132.96-31.93 133.15-32.48 130.87-34.41L130.87-34.41Q130.03-35.11 129.73-35.22 129.42-35.33 129.18-35.13 128.94-34.94 128.36-34.1L128.36-34.1Q127.44-32.74 126.96-32.74L126.96-32.74Q126.21-32.74 126.15-33.77 126.08-34.8 126.83-35.46L126.83-35.46Q127.49-36.12 126.74-36.52L126.74-36.52Q126.08-36.87 123.62-37.53L123.62-37.53Q122.39-37.84 122.21-37.77 122.04-37.71 122.12-37.05L122.12-37.05Q122.65-33.05 121.64-32.61L121.64-32.61Q121.25-32.43 118.59-32.45 115.93-32.48 115.62-32.61L115.62-32.61Q114.96-32.92 114.98-33.97 115-35.02 115.66-35.55L115.66-35.55Q116.5-36.21 114.43-36.91L114.43-36.91Q113.6-37.22 112.15-37.57L112.15-37.57Q111.14-37.84 110.98-37.77 110.83-37.71 110.87-37.09L110.87-37.09Q111.23-34.28 110.92-33.4 110.61-32.52 109.16-32.48L109.16-32.48Q108.02-32.48 107.53-32.74 107.05-33 105.56-34.41L105.56-34.41Q103.97-35.9 103.89-35.9L103.89-35.9Q103.84-35.95 103.75-35.93 103.67-35.9 103.49-35.68 103.32-35.46 102.96-34.94L102.96-34.94Q101.95-33.53 101.54-33.27 101.12-33 99.67-32.96L99.67-32.96Q96.06-32.96 93.25-33.22L93.25-33.22Q92.46-33.31 92.4-33.18 92.33-33.05 92.72-32.21 93.12-31.38 93.27-31.25 93.43-31.11 93.78-31.29L93.78-31.29Q96.9-32.39 97.34-30.85L97.34-30.85Q97.51-30.32 97.47-25.88 97.43-21.45 97.25-21.18L97.25-21.18Q96.99-20.74 96.26-20.65 95.54-20.57 93.52-20.79L93.52-20.79Q92.59-20.87 92.59-20.74L92.59-20.74Q92.59-20.65 92.99-19.86L92.99-19.86Q93.43-18.98 93.56-18.92 93.69-18.85 94.31-19.03L94.31-19.03Q96.59-19.86 97.03-19.01 97.47-18.15 97.47-12.83L97.47-12.83Q97.47-12.48 97.47-11.07L97.47-11.07Q97.47-7.73 97.05-7.05 96.64-6.37 94.17-5.58L94.17-5.58Q93.38-5.36 92.9-5.19L92.9-5.19Q92.2-4.97 92.2-4.75L92.2-4.75Q92.15-4.48 92.94-2.55L92.94-2.55Q93.91-0.22 94.13-0.18L94.13-0.18Q94.26-0.18 94.57-0.79L94.57-0.79Q94.79-1.27 97.12-2.77L97.12-2.77Q101.34-5.54 104.15-7.69L104.15-7.69Q106.44-9.36 106.79-9.36L106.79-9.36Q107.09-9.36 107.49-8.48L107.49-8.48Q107.8-7.78 108-7.67 108.19-7.56 108.85-7.69L108.85-7.69Q113.33-8.53 115-8.17 116.67-7.82 116.67-6.11L116.67-6.11Q116.67-5.23 116.39-4.77 116.1-4.31 115.09-4.11 114.08-3.91 112.52-3.98 110.96-4.04 108.11-4.31L108.11-4.31Q107.31-4.39 107.25-4.28 107.18-4.17 107.58-3.34 107.97-2.5 108.17-2.4 108.37-2.29 109.25-2.42L109.25-2.42Q111.05-2.72 113.31-2.81 115.58-2.9 116.02-2.72L116.02-2.72Q116.59-2.46 116.72-0.97 116.85 0.53 116.32 1.01L116.32 1.01Q116.06 1.27 110.98 1.27 105.91 1.27 103.23 1.05L103.23 1.05Q102.61 1.01 102.61 1.14L102.61 1.14Q102.61 1.32 103.05 2.18 103.49 3.03 103.58 3.12ZM103.54-9.23L103.54-9.23Q102-8.61 101.69-8.79L101.69-8.79Q101.25-9.05 101.25-12.13L101.25-12.13Q101.25-12.26 101.25-13.93L101.25-13.93Q101.25-14.5 101.25-15.42L101.25-15.42Q101.21-18.46 101.56-18.94L101.56-18.94Q101.95-19.34 103.54-19.34L103.54-19.34Q104.06-19.34 104.37-19.34L104.37-19.34Q107.18-19.38 107.36-20.06 107.53-20.74 105.29-22.81L105.29-22.81Q104.68-23.38 104.44-23.47 104.19-23.55 103.95-23.36 103.71-23.16 103.23-22.41L103.23-22.41Q102.52-21.31 102.19-21.09 101.87-20.87 101.56-21.18L101.56-21.18Q101.34-21.4 101.25-26.02 101.16-30.63 101.38-31.11L101.38-31.11Q101.6-31.55 103.71-31.71 105.82-31.86 106.44-31.46L106.44-31.46Q106.61-31.33 108.37-31.33L108.37-31.33Q110.35-31.33 110.7-30.94L110.7-30.94Q111.18-30.45 111.05-27.64L111.05-27.64Q111.01-27.51 110.96-26.28L110.96-26.28Q110.87-24.7 110.94-24.35 111.01-23.99 111.45-23.86L111.45-23.86Q112.19-23.69 113.47-24.06 114.74-24.43 114.92-24.87L114.92-24.87Q115.05-25.27 115.55-25.4 116.06-25.53 116.32-25.22L116.32-25.22Q116.63-24.92 116.7-23.93 116.76-22.94 116.5-22.46L116.5-22.46Q116.1-21.62 114.21-21.75 112.32-21.88 110.04-22.9L110.04-22.9Q109.64-23.07 109.14-23.27 108.63-23.47 108.39-23.58 108.15-23.69 108.11-23.69L108.11-23.69Q108.02-23.69 108-22.83 107.97-21.97 108-20.96 108.02-19.95 108.06-19.56L108.06-19.56Q108.19-19.07 108.19-16.88 108.19-14.68 108.11-13.36L108.11-13.36Q108.02-12 108.22-11.69 108.41-11.38 109.38-11.51L109.38-11.51Q110.43-11.69 111.23-12.08 112.02-12.48 112.06-12.88L112.06-12.88Q112.1-13.45 112.61-13.65 113.12-13.84 114.48-13.84L114.48-13.84Q115.97-13.84 116.32-13.51 116.67-13.18 116.72-11.82L116.72-11.82Q116.76-9.98 116.26-9.71 115.75-9.45 112.54-9.49L112.54-9.49Q107.31-9.54 107.31-10.02L107.31-10.02Q107.31-10.11 107.4-10.24L107.4-10.24Q107.89-10.72 107.23-10.63L107.23-10.63Q106.74-10.55 105.82-10.15L105.82-10.15Q105.42-9.98 104.57-9.65 103.71-9.32 103.54-9.23ZM124.72-9.58L124.72-9.58Q124.37-9.4 122.87-9.43 121.38-9.45 121.16-9.62L121.16-9.62Q120.76-9.84 120.61-11.23 120.45-12.61 120.76-13.23L120.76-13.23Q121.25-14.19 123.18-13.95 125.11-13.71 125.2-12.66L125.2-12.66Q125.24-12.17 125.51-12.13L125.51-12.13Q126.34-12.08 126.01-11.01 125.68-9.93 124.72-9.58ZM116.19-15.34L116.19-15.34Q115.93-15.12 114.39-15.12L114.39-15.12Q112.68-15.12 112.35-15.51 112.02-15.91 112.06-18.11L112.06-18.11Q112.1-20 112.41-20.35 112.72-20.7 114.39-20.7 116.06-20.7 116.37-20.35 116.67-20 116.72-18.11L116.72-18.11Q116.72-16.52 116.63-16.04 116.54-15.56 116.19-15.34ZM124.63-15.34L124.63-15.34Q124.06-14.94 122.5-15.07 120.94-15.21 120.72-15.69L120.72-15.69Q120.54-16.04 120.56-17.89 120.59-19.73 120.76-20.08L120.76-20.08Q121.07-20.74 122.78-20.76 124.5-20.79 124.98-20.13L124.98-20.13Q125.33-19.64 125.2-17.62 125.07-15.6 124.63-15.34ZM121.68-26.98L121.68-26.98Q121.42-26.81 118.65-26.81L118.65-26.81Q116.98-26.81 116.41-26.81 115.84-26.81 115.4-27.11 114.96-27.42 114.96-27.73 114.96-28.04 114.96-29.09L114.96-29.09Q114.96-30.81 115.38-31.07 115.8-31.33 118.61-31.33 121.42-31.33 121.86-31.07 122.3-30.81 122.3-29.09L122.3-29.09Q122.3-27.95 122.19-27.55 122.08-27.16 121.68-26.98ZM139.04 3.78L139.04 3.78Q141.2 4.53 143.22 2.48 145.24 0.44 145.24-2.55L145.24-2.55Q145.24-3.52 145.48-3.85 145.72-4.17 146.65-4.53L146.65-4.53Q147.74-4.92 147.96-5.36L147.96-5.36Q148.18-5.8 148.54-5.84L148.54-5.84Q149.19-6.02 157.37-6.02L157.37-6.02Q165.94-6.02 166.64-5.8L166.64-5.8Q167.04-5.58 167.04-5.05L167.04-5.05Q167.04-4.75 167.26-4.61L167.26-4.61Q167.52-4.44 167.5-4.24 167.48-4.04 167.21-4.04L167.21-4.04Q166.6-3.96 167.17-3.43L167.17-3.43Q167.39-3.25 167.78-2.94L167.78-2.94Q169.19-1.85 170.84-0.15 172.49 1.54 173.41 2.9L173.41 2.9Q173.76 3.47 174.05 3.63 174.33 3.78 174.95 3.78L174.95 3.78Q176 3.78 176.48 3.01 176.97 2.24 176.7 1.1 176.44-0.04 175.52-1.01L175.52-1.01Q174.55-1.98 173.43-2.5 172.31-3.03 169.8-3.78L169.8-3.78Q169.1-3.96 168.9-4.13 168.71-4.31 168.95-4.53 169.19-4.75 169.94-5.1L169.94-5.1Q171.04-5.58 171.15-5.82 171.25-6.06 171.21-7.78L171.21-7.78Q171.17-9.36 171.28-9.87 171.39-10.37 171.91-10.68L171.91-10.68Q172.57-11.16 172.51-11.38 172.44-11.6 171.3-12.74L171.3-12.74Q169.94-14.06 170.11-14.33L170.11-14.33Q170.33-14.63 173.63-14.68L173.63-14.68Q177.23-14.72 177.41-15.31 177.58-15.91 174.73-18.19L174.73-18.19Q174.02-18.76 173.78-18.94 173.54-19.12 173.17-19.03 172.79-18.94 172.66-18.74 172.53-18.54 171.91-17.75L171.91-17.75Q170.82-16.26 170.29-16.08 169.76-15.91 166.77-15.91L166.77-15.91Q164.31-15.95 163.83-16.04 163.34-16.13 163.34-16.52L163.34-16.52Q163.34-16.83 164.22-17.47 165.1-18.11 165.67-18.24L165.67-18.24Q166.42-18.46 166.6-18.94L166.6-18.94Q166.82-19.42 168.05-19.73L168.05-19.73Q169.58-20.17 169.85-20.5 170.11-20.83 170.02-22.1L170.02-22.1Q169.94-23.64 170.11-24.19 170.29-24.74 170.99-25.09L170.99-25.09Q171.21-25.22 171.28-25.36 171.34-25.49 171.25-25.71 171.17-25.93 170.86-26.26 170.55-26.59 170.02-27.07L170.02-27.07Q168.75-28.21 168.95-28.56 169.15-28.92 171.04-28.96L171.04-28.96Q173.01-29 173.08-29.49 173.14-29.97 171.43-31.51L171.43-31.51Q170.02-32.78 170.35-33.09 170.68-33.4 173.36-33.4L173.36-33.4Q175.96-33.4 176.04-33.99 176.13-34.58 173.72-36.43L173.72-36.43Q172.4-37.44 172.02-37.4 171.65-37.35 170.6-35.95L170.6-35.95Q169.94-35.07 169.67-34.94L169.67-34.94Q169.19-34.72 165.19-34.72L165.19-34.72Q164.93-34.72 164.66-34.72L164.66-34.72Q161.19-34.72 160.58-34.74 159.96-34.76 159.83-34.94L159.83-34.94Q159.39-35.46 160.05-36.04L160.05-36.04Q160.84-36.65 158.77-37.31L158.77-37.31Q157.9-37.62 156.36-37.97L156.36-37.97Q155.26-38.23 155.15-38.17 155.04-38.1 155.13-37.05L155.13-37.05Q155.26-35.46 155.04-35.16L155.04-35.16Q154.64-34.67 151.57-34.63L151.57-34.63Q151.22-34.63 148.49-34.63L148.49-34.63Q142.21-34.63 139.17-34.89L139.17-34.89Q138.56-34.94 138.52-34.8 138.47-34.67 138.96-33.79L138.96-33.79Q139.39-32.96 139.59-32.87 139.79-32.78 140.84-32.96L140.84-32.96Q143.17-33.31 149.15-33.35L149.15-33.35Q154.2-33.4 154.51-33.27L154.51-33.27Q155.13-32.92 155.15-31.79 155.17-30.67 154.6-30.37L154.6-30.37Q154.2-30.19 149.48-30.21 144.76-30.23 142.43-30.45L142.43-30.45Q141.77-30.5 141.77-30.37L141.77-30.37Q141.77-30.19 142.23-29.31 142.69-28.43 142.78-28.43L142.78-28.43 142.91-28.39Q143.04-28.39 143.24-28.39 143.44-28.39 143.61-28.39L143.61-28.39Q144.4-28.39 144.56-28.23 144.71-28.08 144.8-27.25L144.8-27.25Q145.11-23.99 144.89-20.87L144.89-20.87Q144.8-19.16 144.98-18.85 145.15-18.54 146.25-18.72L146.25-18.72Q148.18-18.94 148.97-19.86L148.97-19.86Q149.24-20.13 149.5-20.15 149.77-20.17 149.85-19.95L149.85-19.95Q150.07-19.47 150.21-19.34L150.21-19.34Q151.04-18.15 151.19-17.25 151.35-16.35 150.78-16.08L150.78-16.08Q150.34-15.91 144.67-15.97 139-16.04 137.77-16.26L137.77-16.26Q137.37-16.35 137.42-16.13L137.42-16.13Q137.42-15.95 137.72-15.34L137.72-15.34Q138.21-14.33 138.45-14.24 138.69-14.15 140.05-14.33L140.05-14.33Q143-14.72 143.66-14.37L143.66-14.37Q143.92-14.19 143.83-14.15L143.83-14.15Q143.66-14.15 143.66-14.02 143.66-13.89 143.75-13.01L143.75-13.01Q143.79-12.61 143.9-8.5 144.01-4.39 144.01-3.78L144.01-3.78Q144.01-3.03 142.91-2.07L142.91-2.07Q141.81-1.01 139.39-0.13L139.39-0.13Q137.9 0.4 137.77 1.87 137.64 3.34 139.04 3.78ZM166.51-7.51L166.51-7.51Q166.2-7.25 157.5-7.25 148.8-7.25 148.49-7.51L148.49-7.51Q147.88-7.91 147.94-9.18 148.01-10.46 148.67-10.81L148.67-10.81Q149.02-10.99 157.5-10.99 165.98-10.99 166.33-10.81L166.33-10.81Q166.99-10.46 167.06-9.18 167.12-7.91 166.51-7.51ZM166.51-12.44L166.51-12.44Q166.03-12.22 157.19-12.24 148.36-12.26 147.7-12.52L147.7-12.52Q144.45-13.8 144.8-14.37L144.8-14.37Q144.84-14.46 145.06-14.55L145.06-14.55Q145.46-14.68 156.29-14.68 167.12-14.68 167.39-14.55L167.39-14.55Q167.87-14.33 167.54-13.56 167.21-12.79 166.51-12.44ZM159.61-16.13L159.61-16.13Q159.21-15.91 157.41-15.91 155.61-15.91 155.26-16.08 154.91-16.26 154.86-17.14L154.86-17.14Q154.82-18.46 153.33-19.42L153.33-19.42Q152.23-20.17 152.71-20.39L152.71-20.39Q153.19-20.57 156.45-20.61L156.45-20.61Q160.05-20.65 160.55-20.35 161.06-20.04 160.58-18.02L160.58-18.02Q160.22-16.39 159.61-16.13ZM165.32-22.02L165.32-22.02Q165.01-21.84 157.43-21.86 149.85-21.88 149.59-22.06L149.59-22.06Q149.02-22.41 149.02-23.55 149.02-24.7 149.59-25.05L149.59-25.05Q149.9-25.22 157.46-25.22 165.01-25.22 165.32-25.05L165.32-25.05Q165.89-24.7 165.89-23.51 165.89-22.32 165.32-22.02ZM165.1-26.54L165.1-26.54Q164.71-26.46 157.17-26.48 149.63-26.5 149.24-26.59L149.24-26.59Q146.87-27.25 146.34-28.13L146.34-28.13Q146.16-28.43 146.47-28.61L146.47-28.61Q146.95-28.92 156.34-29 165.72-29.09 166.25-28.78L166.25-28.78Q166.55-28.56 166.51-28.13 166.46-27.69 166.05-27.18 165.63-26.67 165.1-26.54ZM166.64-30.45L166.64-30.45Q166.33-30.28 163.23-30.23 160.14-30.19 159.83-30.37L159.83-30.37Q159.26-30.72 159.28-31.82 159.3-32.92 159.92-33.27L159.92-33.27Q160.27-33.44 164.07-33.4 167.87-33.35 168.18-33.18L168.18-33.18Q168.53-32.96 167.98-31.93 167.43-30.89 166.64-30.45ZM152.09 3.47L152.09 3.47Q152.71 3.74 153.37 3.54 154.03 3.34 154.38 2.86L154.38 2.86Q155.26 1.54 154.51-0.24 153.76-2.02 151.74-3.38L151.74-3.38Q149.85-4.7 149.81-4.13L149.81-4.13Q149.77-3.87 149.99-3.34L149.99-3.34Q151.22-0.04 151.22 2.33L151.22 2.33Q151.22 3.08 152.09 3.47ZM161.98 3.25L161.98 3.25Q163.04 3.78 163.94 3.1 164.84 2.42 164.79 1.14L164.79 1.14Q164.71-0.4 163.3-1.74 161.89-3.08 159.48-3.91L159.48-3.91Q158.69-4.22 158.44-4.15 158.2-4.09 158.31-3.82 158.42-3.56 158.95-2.72L158.95-2.72Q160.62-0.13 161.1 1.63L161.1 1.63Q161.46 2.94 161.98 3.25Z" transform="translate(-2.523571491241455, 38.18124771118164)"></path></g> <!----> <!----> <!----> <!----> <!----> <!----> <!----></g></g> <g data-gra="path-slogan" fill-rule="" class="tp-slogan iconsvg-slogansvg" fill="#da6545" transform="translate(49.222999572753906,48.162139892578125)"><!----> <!----> <g transform="scale(1, 1)"><g transform="scale(1)"><path d="M3.09-7.59L0.19-7.59L0.19-8.58L7.13-8.58L7.13-7.59L4.22-7.59L4.22 0L3.09 0L3.09-7.59ZM8.34-8.58L9.52-8.58L9.52 0L8.34 0L8.34-8.58ZM17.16 0L16.31-2.48L12.84-2.48L11.95 0L10.78 0L14.02-8.58L15.33-8.58L18.42 0L17.16 0ZM14.58-7.31L13.22-3.52L15.89-3.52L14.63-7.31L14.58-7.31ZM20.86-8.58L25.17-1.64L25.17-8.58L26.30-8.58L26.30 0L24.98 0L20.63-6.94L20.58-6.94L20.58 0L19.45 0L19.45-8.58L20.86-8.58ZM27.38-1.92L27.38-2.77L28.45-2.77L28.45-2.16Q28.45-0.75 29.77-0.75L29.77-0.75Q31.13-0.75 31.13-2.25L31.13-2.25L31.13-8.58L32.30-8.58L32.30-2.30Q32.25 0.09 29.81 0.14L29.81 0.14Q27.52 0.09 27.38-1.92L27.38-1.92ZM34.27-8.58L35.44-8.58L35.44 0L34.27 0L34.27-8.58ZM38.81-8.58L43.13-1.64L43.13-8.58L44.25-8.58L44.25 0L42.94 0L38.58-6.94L38.53-6.94L38.53 0L37.41 0L37.41-8.58L38.81-8.58ZM48.66-1.92L48.66-2.77L49.73-2.77L49.73-2.16Q49.73-0.75 51.05-0.75L51.05-0.75Q52.41-0.75 52.41-2.25L52.41-2.25L52.41-8.58L53.58-8.58L53.58-2.30Q53.53 0.09 51.09 0.14L51.09 0.14Q48.80 0.09 48.66-1.92L48.66-1.92ZM55.55-8.58L56.72-8.58L56.72 0L55.55 0L55.55-8.58ZM60.09-8.58L64.41-1.64L64.41-8.58L65.53-8.58L65.53 0L64.22 0L59.86-6.94L59.81-6.94L59.81 0L58.69 0L58.69-8.58L60.09-8.58ZM74.06-8.58L71.16-4.41L74.20 0L72.75 0L70.41-3.52L68.06 0L66.66 0L69.75-4.41L66.84-8.58L68.30-8.58L70.45-5.30L72.66-8.58L74.06-8.58ZM75.47-8.58L76.64-8.58L76.64 0L75.47 0L75.47-8.58Z" transform="translate(-0.1875, 8.578125)"></path></g></g></g></g></g><defs v-gra="od"></defs></svg>